<svg xmlns="http://www.w3.org/2000/svg" viewBox="0 0 1440 800"><g fill="none" stroke="#d1d6d8" stroke-width="2" opacity=".42"><path d="M879.8 300.0 L880.9 302.9 L881.5 305.8 L881.5 308.7 L880.9 311.6 L879.8 314.5 L878.2 317.3 L876.2 320.0 L873.8 322.6 L871.0 325.0 L868.0 327.4 L864.7 329.6 L861.3 331.8 L857.8 333.8 L854.2 335.7 L850.6 337.6 L847.0 339.3 L843.4 341.0 L839.9 342.7 L836.5 344.4 L833.2 346.0 L829.9 347.6 L826.6 349.2 L823.4 350.8 L820.2 352.4 L817.0 354.0 L813.8 355.5 L810.4 357.0 L807.1 358.5 L803.6 359.9 L800.0 361.1 L796.3 362.3 L792.5 363.3 L788.6 364.2 L784.6 364.9 L780.5 365.5 L776.4 365.9 L772.2 366.1 L768.1 366.2 L763.9 366.1 L759.8 365.9 L755.7 365.5 L751.6 365.1 L747.7 364.6 L743.8 364.1 L740.0 363.6 L736.3 363.0 L732.6 362.6 L728.9 362.2 L725.2 361.8 L721.5 361.6 L717.8 361.5 L713.9 361.5 L709.9 361.6 L705.8 361.9 L701.5 362.2 L697.1 362.5 L692.4 362.9 L687.5 363.3 L682.5 363.6 L677.3 363.9 L671.9 364.1 L666.5 364.1 L661.0 363.9 L655.6 363.6 L650.2 363.0 L645.0 362.1 L640.0 360.9 L635.2 359.5 L630.9 357.8 L626.9 355.8 L623.4 353.6 L620.4 351.1 L618.0 348.4 L616.1 345.6 L614.7 342.5 L614.0 339.4 L613.8 336.2 L614.0 333.0 L614.8 329.8 L616.0 326.6 L617.5 323.4 L619.3 320.4 L621.3 317.4 L623.4 314.6 L625.6 311.9 L627.7 309.3 L629.8 306.8 L631.8 304.5 L633.5 302.2 L635.0 300.0 L636.3 297.9 L637.3 295.8 L638.0 293.7 L638.5 291.6 L638.7 289.5 L638.8 287.3 L638.7 285.1 L638.5 282.9 L638.2 280.5 L638.0 278.2 L637.8 275.7 L637.7 273.2 L637.8 270.7 L638.1 268.1 L638.6 265.6 L639.4 263.0 L640.5 260.5 L641.9 258.1 L643.6 255.7 L645.6 253.4 L648.0 251.2 L650.5 249.2 L653.4 247.2 L656.4 245.4 L659.6 243.7 L663.0 242.1 L666.6 240.5 L670.2 239.1 L673.9 237.7 L677.6 236.4 L681.4 235.2 L685.2 233.9 L689.0 232.7 L692.9 231.4 L696.8 230.2 L700.8 229.0 L704.8 227.7 L708.8 226.5 L713.0 225.3 L717.2 224.1 L721.6 223.0 L726.0 221.9 L730.6 221.0 L735.3 220.2 L740.0 219.6 L744.8 219.1 L749.6 218.9 L754.5 218.9 L759.3 219.2 L764.0 219.8 L768.7 220.7 L773.1 221.8 L777.4 223.2 L781.5 224.9 L785.3 226.8 L788.8 229.0 L792.0 231.4 L794.8 233.9 L797.4 236.5 L799.7 239.2 L801.6 242.0 L803.4 244.7 L804.9 247.4 L806.3 250.1 L807.6 252.6 L808.8 255.1 L810.0 257.3 L811.3 259.5 L812.8 261.4 L814.4 263.3 L816.3 264.9 L818.5 266.5 L820.9 267.9 L823.7 269.2 L826.7 270.5 L830.1 271.8 L833.8 273.1 L837.7 274.4 L841.8 275.8 L846.0 277.3 L850.3 278.9 L854.6 280.7 L858.8 282.6 L862.9 284.6 L866.7 286.9 L870.2 289.2 L873.3 291.8 L876.0 294.4 L878.1 297.2 L879.8 300.0 Z"/><path d="M951.6 300.0 L953.2 304.4 L953.9 308.8 L953.8 313.2 L952.9 317.6 L951.2 321.9 L948.8 326.1 L945.7 330.2 L942.0 334.1 L937.8 337.8 L933.2 341.4 L928.4 344.8 L923.2 348.0 L917.9 351.1 L912.6 354.0 L907.2 356.8 L901.8 359.5 L896.5 362.1 L891.3 364.7 L886.2 367.2 L881.2 369.7 L876.3 372.2 L871.4 374.7 L866.6 377.1 L861.8 379.6 L856.9 382.0 L852.0 384.3 L847.0 386.6 L841.8 388.8 L836.5 390.9 L831.1 392.8 L825.4 394.5 L819.6 396.1 L813.7 397.4 L807.6 398.4 L801.4 399.2 L795.1 399.8 L788.8 400.0 L782.4 400.1 L776.1 399.9 L769.8 399.5 L763.6 399.0 L757.6 398.3 L751.6 397.5 L745.7 396.7 L740.0 395.9 L734.4 395.1 L728.8 394.4 L723.2 393.8 L717.7 393.4 L712.1 393.1 L706.4 393.0 L700.6 393.0 L694.5 393.3 L688.3 393.7 L681.7 394.2 L674.9 394.8 L667.8 395.4 L660.4 396.0 L652.7 396.6 L644.8 397.0 L636.6 397.3 L628.4 397.3 L620.1 397.1 L611.8 396.5 L603.7 395.5 L595.8 394.2 L588.3 392.4 L581.2 390.2 L574.6 387.6 L568.7 384.6 L563.4 381.1 L559.0 377.4 L555.4 373.3 L552.6 368.9 L550.6 364.3 L549.6 359.6 L549.3 354.7 L549.8 349.8 L551.0 344.9 L552.8 340.1 L555.1 335.3 L557.8 330.7 L560.8 326.3 L564.0 322.0 L567.2 317.9 L570.4 314.0 L573.5 310.3 L576.3 306.7 L578.8 303.3 L581.0 300.0 L582.8 296.8 L584.3 293.6 L585.3 290.4 L585.9 287.3 L586.2 284.1 L586.3 280.8 L586.1 277.4 L585.8 274.0 L585.4 270.4 L585.0 266.8 L584.7 263.1 L584.7 259.3 L584.8 255.5 L585.4 251.6 L586.2 247.8 L587.5 244.0 L589.3 240.2 L591.5 236.5 L594.2 233.0 L597.3 229.6 L600.9 226.3 L604.9 223.2 L609.2 220.3 L613.8 217.6 L618.7 215.0 L623.9 212.6 L629.2 210.3 L634.6 208.1 L640.2 206.0 L645.8 204.0 L651.5 202.1 L657.2 200.1 L663.0 198.2 L668.8 196.3 L674.6 194.4 L680.6 192.4 L686.6 190.5 L692.8 188.6 L699.0 186.7 L705.5 184.8 L712.1 183.1 L718.8 181.5 L725.7 180.0 L732.8 178.8 L740.0 177.9 L747.3 177.2 L754.6 176.9 L762.0 177.0 L769.3 177.5 L776.5 178.4 L783.5 179.7 L790.2 181.5 L796.7 183.7 L802.8 186.3 L808.5 189.3 L813.7 192.6 L818.5 196.3 L822.8 200.1 L826.7 204.1 L830.1 208.2 L833.0 212.4 L835.6 216.6 L837.9 220.7 L840.0 224.7 L841.9 228.6 L843.8 232.2 L845.7 235.6 L847.7 238.8 L850.0 241.7 L852.6 244.4 L855.5 246.9 L858.8 249.2 L862.6 251.4 L866.9 253.4 L871.6 255.3 L876.8 257.2 L882.4 259.1 L888.4 261.1 L894.6 263.3 L901.0 265.5 L907.5 268.0 L914.0 270.6 L920.4 273.5 L926.5 276.7 L932.2 280.1 L937.4 283.7 L942.0 287.5 L946.0 291.5 L949.2 295.7 L951.6 300.0 Z"/><path d="M1023.4 300.0 L1025.4 305.9 L1026.2 311.8 L1026.0 317.7 L1024.6 323.5 L1022.3 329.3 L1018.9 334.9 L1014.7 340.3 L1009.8 345.5 L1004.2 350.5 L998.1 355.3 L991.6 359.8 L984.8 364.1 L977.8 368.2 L970.8 372.2 L963.7 376.0 L956.6 379.6 L949.6 383.2 L942.8 386.7 L936.0 390.1 L929.4 393.5 L922.9 396.9 L916.5 400.2 L910.1 403.6 L903.6 406.9 L897.1 410.2 L890.5 413.3 L883.8 416.4 L876.8 419.3 L869.7 422.1 L862.3 424.6 L854.7 426.9 L846.9 428.9 L838.8 430.6 L830.6 431.9 L822.2 432.9 L813.8 433.6 L805.3 433.9 L796.7 433.9 L788.3 433.5 L779.9 433.0 L771.6 432.2 L763.4 431.2 L755.5 430.1 L747.7 429.0 L740.0 427.9 L732.5 426.9 L725.0 426.0 L717.6 425.3 L710.2 424.7 L702.7 424.4 L695.1 424.4 L687.2 424.5 L679.1 424.9 L670.7 425.5 L661.9 426.3 L652.7 427.1 L643.1 428.0 L633.1 428.9 L622.7 429.7 L612.1 430.3 L601.1 430.7 L590.1 430.8 L578.9 430.4 L567.9 429.6 L557.0 428.3 L546.4 426.5 L536.4 424.0 L526.9 421.0 L518.2 417.5 L510.3 413.4 L503.4 408.7 L497.6 403.6 L492.9 398.1 L489.2 392.2 L486.8 386.0 L485.4 379.6 L485.2 373.1 L485.9 366.5 L487.5 360.0 L490.0 353.5 L493.1 347.2 L496.7 341.0 L500.7 335.1 L504.8 329.4 L509.1 324.0 L513.3 318.7 L517.2 313.8 L520.9 309.0 L524.2 304.4 L527.0 300.0 L529.3 295.7 L531.0 291.4 L532.3 287.2 L533.1 282.9 L533.4 278.6 L533.4 274.2 L533.1 269.7 L532.6 265.0 L532.1 260.3 L531.7 255.4 L531.4 250.4 L531.3 245.4 L531.7 240.2 L532.5 235.1 L533.8 230.0 L535.6 224.9 L538.1 219.9 L541.2 215.0 L544.9 210.3 L549.2 205.8 L554.0 201.5 L559.4 197.4 L565.2 193.5 L571.5 189.9 L578.1 186.5 L584.9 183.2 L592.0 180.2 L599.3 177.3 L606.6 174.5 L614.1 171.7 L621.7 169.1 L629.3 166.5 L636.9 163.8 L644.7 161.2 L652.5 158.5 L660.4 155.9 L668.4 153.2 L676.6 150.5 L685.0 147.9 L693.7 145.4 L702.5 143.0 L711.6 140.8 L720.8 138.9 L730.3 137.2 L740.0 135.9 L749.8 135.1 L759.6 134.7 L769.5 134.9 L779.3 135.6 L788.9 136.9 L798.3 138.7 L807.3 141.2 L815.9 144.2 L824.1 147.8 L831.6 151.9 L838.6 156.4 L845.0 161.3 L850.7 166.5 L855.8 171.9 L860.3 177.5 L864.2 183.1 L867.6 188.7 L870.7 194.2 L873.5 199.5 L876.1 204.6 L878.6 209.5 L881.2 214.0 L884.0 218.2 L887.1 222.1 L890.6 225.7 L894.6 228.9 L899.2 232.0 L904.4 234.8 L910.2 237.4 L916.7 240.0 L923.7 242.5 L931.3 245.1 L939.4 247.8 L947.8 250.6 L956.4 253.7 L965.2 257.0 L973.8 260.6 L982.3 264.5 L990.4 268.7 L998.0 273.2 L1004.8 278.1 L1010.9 283.2 L1016.1 288.6 L1020.3 294.2 L1023.4 300.0 Z"/><path d="M1095.1 300.0 L1097.4 307.3 L1098.3 314.7 L1097.8 322.1 L1096.0 329.4 L1092.9 336.6 L1088.7 343.6 L1083.4 350.4 L1077.2 356.9 L1070.2 363.1 L1062.7 369.1 L1054.6 374.8 L1046.2 380.2 L1037.5 385.4 L1028.8 390.3 L1020.0 395.1 L1011.3 399.7 L1002.7 404.2 L994.3 408.7 L986.0 413.0 L977.8 417.4 L969.7 421.7 L961.7 425.9 L953.7 430.2 L945.7 434.4 L937.6 438.5 L929.3 442.5 L920.8 446.4 L912.1 450.0 L903.0 453.5 L893.7 456.6 L884.1 459.4 L874.2 461.8 L864.0 463.9 L853.7 465.5 L843.1 466.6 L832.4 467.3 L821.7 467.6 L811.0 467.5 L800.4 467.0 L789.8 466.2 L779.5 465.2 L769.3 463.9 L759.3 462.6 L749.6 461.2 L740.0 459.8 L730.6 458.5 L721.3 457.4 L712.0 456.6 L702.7 456.0 L693.3 455.7 L683.8 455.7 L673.9 456.0 L663.7 456.6 L653.1 457.4 L642.0 458.4 L630.4 459.6 L618.3 460.8 L605.7 462.0 L592.6 463.0 L579.2 463.9 L565.4 464.3 L551.5 464.4 L537.5 463.9 L523.6 462.9 L510.0 461.2 L496.9 458.8 L484.3 455.8 L472.5 451.9 L461.7 447.4 L452.0 442.2 L443.5 436.3 L436.3 429.8 L430.5 422.8 L426.1 415.4 L423.1 407.6 L421.6 399.6 L421.3 391.4 L422.3 383.2 L424.5 375.0 L427.5 366.9 L431.4 359.0 L435.9 351.3 L440.8 343.9 L446.0 336.8 L451.2 330.0 L456.3 323.5 L461.2 317.2 L465.6 311.3 L469.5 305.6 L472.9 300.0 L475.6 294.6 L477.6 289.2 L479.0 283.9 L479.9 278.5 L480.2 273.1 L480.1 267.5 L479.7 261.8 L479.1 256.0 L478.5 250.0 L478.0 243.9 L477.7 237.7 L477.7 231.3 L478.3 224.9 L479.4 218.5 L481.2 212.1 L483.7 205.8 L486.9 199.6 L490.9 193.5 L495.7 187.7 L501.2 182.1 L507.3 176.8 L514.1 171.7 L521.5 166.9 L529.4 162.4 L537.6 158.1 L546.2 154.1 L555.1 150.3 L564.1 146.6 L573.3 143.1 L582.6 139.6 L592.0 136.3 L601.4 132.9 L611.0 129.5 L620.6 126.1 L630.3 122.7 L640.2 119.3 L650.2 115.8 L660.5 112.4 L671.0 109.0 L681.8 105.8 L692.9 102.7 L704.3 99.9 L715.9 97.5 L727.9 95.4 L740.0 93.8 L752.3 92.7 L764.7 92.3 L777.1 92.6 L789.3 93.5 L801.4 95.2 L813.1 97.7 L824.4 100.8 L835.2 104.7 L845.3 109.3 L854.8 114.5 L863.5 120.3 L871.3 126.5 L878.4 133.0 L884.7 139.9 L890.3 146.9 L895.2 153.9 L899.4 161.0 L903.2 167.8 L906.7 174.5 L910.0 180.8 L913.2 186.9 L916.5 192.5 L920.1 197.7 L924.1 202.5 L928.6 206.9 L933.8 210.9 L939.7 214.7 L946.3 218.1 L953.7 221.4 L962.0 224.6 L970.9 227.8 L980.6 231.0 L990.8 234.3 L1001.4 237.9 L1012.2 241.7 L1023.2 245.9 L1034.0 250.4 L1044.6 255.3 L1054.6 260.7 L1064.0 266.4 L1072.5 272.5 L1080.0 279.0 L1086.3 285.8 L1091.3 292.8 L1095.1 300.0 Z"/><path d="M1166.6 300.0 L1169.2 308.8 L1170.1 317.7 L1169.4 326.5 L1167.1 335.3 L1163.3 343.9 L1158.1 352.3 L1151.7 360.4 L1144.3 368.2 L1135.9 375.7 L1126.8 382.8 L1117.2 389.7 L1107.2 396.2 L1097.0 402.4 L1086.6 408.4 L1076.3 414.2 L1066.0 419.8 L1055.8 425.3 L1045.9 430.7 L1036.0 436.0 L1026.3 441.3 L1016.7 446.6 L1007.2 451.8 L997.7 457.0 L988.1 462.1 L978.3 467.0 L968.3 471.9 L958.0 476.5 L947.5 480.9 L936.5 485.0 L925.2 488.7 L913.6 492.0 L901.6 494.9 L889.3 497.2 L876.7 499.0 L863.9 500.3 L851.1 501.1 L838.1 501.3 L825.2 501.0 L812.4 500.3 L799.7 499.3 L787.3 498.0 L775.1 496.4 L763.1 494.7 L751.5 493.0 L740.0 491.4 L728.7 489.9 L717.6 488.7 L706.5 487.7 L695.3 487.0 L684.0 486.8 L672.5 486.9 L660.6 487.4 L648.3 488.2 L635.4 489.3 L622.0 490.7 L608.0 492.2 L593.3 493.8 L578.1 495.2 L562.3 496.5 L546.1 497.6 L529.5 498.1 L512.7 498.2 L495.9 497.6 L479.2 496.4 L462.9 494.3 L447.1 491.4 L432.1 487.6 L418.0 482.9 L405.1 477.4 L393.6 471.0 L383.5 463.8 L375.0 456.0 L368.2 447.5 L363.1 438.5 L359.7 429.1 L358.0 419.5 L357.8 409.6 L359.2 399.7 L361.8 389.9 L365.5 380.2 L370.2 370.7 L375.5 361.5 L381.4 352.6 L387.5 344.1 L393.6 335.9 L399.6 328.1 L405.2 320.7 L410.3 313.6 L414.8 306.7 L418.6 300.0 L421.7 293.5 L424.0 287.0 L425.5 280.6 L426.4 274.1 L426.7 267.5 L426.5 260.8 L425.9 253.9 L425.2 246.9 L424.5 239.7 L423.9 232.3 L423.7 224.8 L423.9 217.2 L424.7 209.5 L426.2 201.8 L428.5 194.2 L431.7 186.7 L435.7 179.3 L440.7 172.1 L446.6 165.2 L453.3 158.5 L460.9 152.2 L469.1 146.1 L478.1 140.4 L487.5 135.1 L497.5 130.0 L507.8 125.2 L518.4 120.6 L529.2 116.2 L540.2 111.9 L551.2 107.7 L562.4 103.5 L573.7 99.4 L585.0 95.3 L596.5 91.1 L608.1 86.8 L619.9 82.6 L631.9 78.3 L644.3 74.1 L656.9 70.0 L669.9 66.0 L683.2 62.2 L696.9 58.8 L711.0 55.8 L725.4 53.3 L740.0 51.4 L754.8 50.2 L769.8 49.7 L784.7 50.1 L799.4 51.3 L813.9 53.5 L828.0 56.5 L841.5 60.5 L854.4 65.3 L866.6 70.9 L877.8 77.2 L888.2 84.2 L897.6 91.8 L906.0 99.8 L913.5 108.1 L920.1 116.5 L925.9 125.0 L931.0 133.4 L935.6 141.7 L939.7 149.6 L943.7 157.2 L947.6 164.4 L951.7 171.1 L956.1 177.2 L961.0 182.9 L966.6 188.2 L973.0 192.9 L980.2 197.3 L988.4 201.5 L997.5 205.4 L1007.5 209.1 L1018.4 212.9 L1030.1 216.8 L1042.5 220.8 L1055.3 225.1 L1068.4 229.7 L1081.5 234.7 L1094.5 240.2 L1107.1 246.2 L1119.1 252.6 L1130.2 259.5 L1140.3 266.9 L1149.1 274.7 L1156.5 282.9 L1162.4 291.3 L1166.6 300.0 Z"/><path d="M1238.1 300.0 L1240.9 310.3 L1241.7 320.6 L1240.7 331.0 L1237.8 341.2 L1233.3 351.2 L1227.1 360.9 L1219.6 370.3 L1210.9 379.4 L1201.2 388.1 L1190.7 396.5 L1179.6 404.5 L1168.0 412.1 L1156.3 419.4 L1144.4 426.5 L1132.5 433.3 L1120.7 439.9 L1109.0 446.4 L1097.5 452.8 L1086.2 459.1 L1075.1 465.4 L1064.0 471.6 L1053.0 477.8 L1041.9 483.9 L1030.7 489.9 L1019.2 495.8 L1007.6 501.4 L995.5 506.9 L983.1 512.0 L970.2 516.7 L956.9 521.0 L943.2 524.8 L929.0 528.0 L914.6 530.6 L899.8 532.6 L884.8 534.0 L869.6 534.7 L854.5 534.8 L839.4 534.4 L824.4 533.5 L809.6 532.2 L795.1 530.5 L780.9 528.7 L766.9 526.7 L753.3 524.7 L740.0 522.8 L726.9 521.1 L713.9 519.7 L700.9 518.6 L687.9 518.0 L674.7 517.8 L661.2 518.1 L647.3 518.8 L632.8 519.9 L617.7 521.4 L602.0 523.1 L585.5 524.9 L568.3 526.9 L550.4 528.7 L531.9 530.2 L512.8 531.5 L493.4 532.2 L473.7 532.2 L454.0 531.5 L434.6 530.0 L415.5 527.5 L397.1 524.0 L379.7 519.5 L363.4 513.9 L348.5 507.3 L335.2 499.8 L323.6 491.4 L313.9 482.1 L306.2 472.1 L300.4 461.6 L296.6 450.6 L294.7 439.3 L294.7 427.8 L296.3 416.2 L299.4 404.7 L303.8 393.4 L309.3 382.3 L315.5 371.6 L322.2 361.3 L329.2 351.4 L336.2 341.9 L343.0 332.8 L349.3 324.2 L355.1 315.8 L360.1 307.8 L364.3 300.0 L367.6 292.4 L370.1 284.8 L371.7 277.2 L372.5 269.6 L372.7 261.9 L372.4 254.0 L371.8 246.0 L370.9 237.8 L370.2 229.3 L369.6 220.7 L369.4 211.9 L369.8 203.0 L370.9 194.1 L372.8 185.2 L375.7 176.3 L379.6 167.5 L384.6 159.0 L390.6 150.7 L397.7 142.7 L405.7 135.0 L414.6 127.7 L424.4 120.7 L434.9 114.1 L446.0 107.9 L457.6 102.0 L469.6 96.4 L481.9 91.0 L494.5 85.9 L507.2 80.8 L520.0 75.9 L533.0 71.0 L546.0 66.0 L559.1 61.1 L572.4 56.0 L585.9 51.0 L599.6 45.9 L613.6 40.7 L628.0 35.7 L642.7 30.7 L657.9 26.0 L673.5 21.5 L689.5 17.5 L706.0 13.9 L722.8 11.0 L740.0 8.8 L757.4 7.4 L774.8 6.9 L792.3 7.5 L809.5 9.0 L826.4 11.6 L842.9 15.3 L858.7 20.1 L873.7 25.8 L887.7 32.5 L900.8 40.1 L912.8 48.4 L923.7 57.3 L933.5 66.7 L942.1 76.4 L949.7 86.3 L956.4 96.3 L962.3 106.1 L967.6 115.7 L972.5 124.9 L977.2 133.7 L981.8 142.0 L986.7 149.7 L992.0 156.9 L997.9 163.4 L1004.6 169.4 L1012.2 174.9 L1020.8 180.0 L1030.6 184.7 L1041.4 189.2 L1053.3 193.6 L1066.3 198.0 L1080.1 202.4 L1094.6 207.1 L1109.6 212.2 L1124.9 217.6 L1140.3 223.5 L1155.4 229.9 L1170.0 236.9 L1183.9 244.5 L1196.7 252.6 L1208.2 261.3 L1218.3 270.4 L1226.7 280.0 L1233.3 289.9 L1238.1 300.0 Z"/><path d="M1309.4 300.0 L1312.3 311.8 L1313.1 323.6 L1311.7 335.3 L1308.2 347.0 L1302.8 358.4 L1295.7 369.5 L1287.1 380.2 L1277.2 390.6 L1266.1 400.6 L1254.2 410.1 L1241.6 419.2 L1228.6 428.0 L1215.4 436.4 L1202.0 444.5 L1188.6 452.4 L1175.4 460.0 L1162.3 467.5 L1149.3 474.9 L1136.6 482.3 L1124.0 489.5 L1111.5 496.8 L1098.9 503.9 L1086.3 511.0 L1073.5 517.9 L1060.5 524.7 L1047.1 531.2 L1033.2 537.4 L1018.9 543.2 L1004.1 548.6 L988.7 553.4 L972.9 557.6 L956.6 561.2 L939.9 564.0 L922.8 566.2 L905.6 567.6 L888.2 568.3 L870.8 568.3 L853.4 567.6 L836.3 566.5 L819.4 564.8 L802.8 562.9 L786.6 560.7 L770.7 558.4 L755.2 556.1 L740.0 554.0 L725.0 552.1 L710.2 550.6 L695.4 549.5 L680.5 548.9 L665.4 548.8 L649.9 549.2 L633.9 550.2 L617.3 551.6 L600.0 553.5 L581.9 555.6 L562.9 557.8 L543.1 560.1 L522.5 562.3 L501.2 564.1 L479.3 565.6 L457.0 566.4 L434.5 566.4 L412.0 565.6 L389.7 563.8 L367.9 560.8 L347.0 556.7 L327.2 551.5 L308.7 545.0 L291.9 537.4 L276.8 528.6 L263.8 518.9 L252.9 508.2 L244.3 496.7 L237.9 484.6 L233.7 471.9 L231.8 459.0 L231.9 445.8 L233.9 432.6 L237.5 419.4 L242.5 406.5 L248.7 393.9 L255.7 381.7 L263.3 369.9 L271.1 358.6 L278.9 347.8 L286.5 337.5 L293.5 327.6 L299.8 318.1 L305.2 308.9 L309.8 300.0 L313.3 291.2 L315.9 282.6 L317.5 273.9 L318.3 265.1 L318.4 256.3 L318.0 247.2 L317.2 238.0 L316.3 228.5 L315.4 218.9 L314.9 209.0 L314.8 199.0 L315.5 188.8 L316.9 178.6 L319.4 168.4 L322.9 158.4 L327.6 148.4 L333.6 138.7 L340.7 129.3 L348.9 120.3 L358.3 111.6 L368.6 103.3 L379.9 95.4 L392.0 88.0 L404.7 80.9 L417.9 74.2 L431.6 67.8 L445.7 61.7 L459.9 55.7 L474.4 49.9 L488.9 44.2 L503.6 38.5 L518.4 32.7 L533.3 26.9 L548.4 21.0 L563.7 15.0 L579.3 9.0 L595.2 3.0 L611.6 -2.9 L628.5 -8.7 L645.8 -14.2 L663.7 -19.4 L682.1 -24.1 L701.0 -28.2 L720.3 -31.5 L740.0 -34.0 L759.9 -35.6 L779.9 -36.0 L799.9 -35.3 L819.7 -33.4 L839.0 -30.3 L857.8 -25.9 L875.8 -20.3 L892.9 -13.6 L908.9 -5.8 L923.8 3.0 L937.4 12.6 L949.7 23.0 L960.7 33.8 L970.5 45.0 L979.1 56.3 L986.7 67.7 L993.5 79.0 L999.5 89.9 L1005.1 100.4 L1010.5 110.4 L1015.9 119.8 L1021.6 128.5 L1027.8 136.5 L1034.7 143.9 L1042.6 150.7 L1051.5 156.8 L1061.6 162.6 L1073.0 167.9 L1085.6 173.0 L1099.4 177.9 L1114.4 182.9 L1130.3 188.0 L1147.0 193.4 L1164.3 199.2 L1181.8 205.4 L1199.4 212.2 L1216.6 219.6 L1233.2 227.7 L1248.9 236.4 L1263.4 245.7 L1276.3 255.7 L1287.6 266.1 L1296.9 277.1 L1304.2 288.4 L1309.4 300.0 Z"/><path d="M1380.5 300.0 L1383.5 313.2 L1384.1 326.5 L1382.3 339.7 L1378.2 352.8 L1372.0 365.6 L1364.0 378.0 L1354.2 390.1 L1343.0 401.7 L1330.7 412.9 L1317.4 423.6 L1303.4 433.9 L1289.0 443.8 L1274.3 453.3 L1259.5 462.5 L1244.7 471.4 L1230.1 480.1 L1215.6 488.7 L1201.3 497.1 L1187.2 505.5 L1173.2 513.8 L1159.2 522.0 L1145.2 530.2 L1131.1 538.2 L1116.7 546.1 L1102.0 553.7 L1086.8 561.1 L1071.1 568.1 L1054.9 574.6 L1038.1 580.6 L1020.6 585.9 L1002.6 590.6 L984.1 594.4 L965.2 597.5 L945.9 599.7 L926.3 601.1 L906.7 601.7 L887.0 601.6 L867.5 600.7 L848.1 599.2 L829.1 597.3 L810.5 595.0 L792.3 592.5 L774.5 589.8 L757.1 587.3 L740.0 584.9 L723.2 582.9 L706.6 581.2 L689.9 580.1 L673.2 579.6 L656.2 579.7 L638.7 580.4 L620.6 581.6 L601.8 583.4 L582.2 585.7 L561.7 588.2 L540.2 590.9 L517.8 593.6 L494.5 596.1 L470.4 598.3 L445.7 599.9 L420.5 600.8 L395.0 600.8 L369.7 599.8 L344.6 597.7 L320.2 594.3 L296.7 589.6 L274.6 583.5 L253.9 576.1 L235.2 567.4 L218.5 557.4 L204.0 546.3 L192.0 534.2 L182.5 521.2 L175.6 507.5 L171.2 493.2 L169.2 478.5 L169.4 463.7 L171.8 448.8 L175.9 434.1 L181.6 419.6 L188.5 405.4 L196.3 391.7 L204.7 378.5 L213.3 365.9 L221.9 353.7 L230.1 342.2 L237.7 331.1 L244.5 320.4 L250.3 310.1 L255.1 300.0 L258.8 290.1 L261.4 280.3 L263.0 270.5 L263.8 260.6 L263.7 250.6 L263.2 240.4 L262.3 229.9 L261.2 219.2 L260.4 208.3 L259.9 197.2 L260.0 185.9 L260.9 174.5 L262.8 163.1 L265.8 151.7 L270.1 140.4 L275.7 129.3 L282.6 118.5 L290.8 108.0 L300.3 97.9 L311.1 88.3 L322.9 79.1 L335.7 70.3 L349.3 62.0 L363.7 54.1 L378.6 46.6 L393.9 39.4 L409.6 32.5 L425.6 25.8 L441.7 19.2 L457.9 12.6 L474.3 6.0 L490.8 -0.6 L507.4 -7.3 L524.3 -14.1 L541.4 -20.9 L558.9 -27.9 L576.8 -34.8 L595.2 -41.6 L614.1 -48.3 L633.7 -54.6 L653.9 -60.6 L674.6 -65.9 L696.0 -70.6 L717.8 -74.3 L740.0 -77.1 L762.5 -78.7 L785.1 -79.1 L807.6 -78.2 L829.8 -76.0 L851.6 -72.3 L872.7 -67.2 L892.9 -60.7 L912.0 -52.9 L930.0 -43.9 L946.6 -33.9 L961.8 -22.9 L975.5 -11.2 L987.8 1.1 L998.7 13.7 L1008.4 26.6 L1016.8 39.4 L1024.4 52.0 L1031.2 64.3 L1037.5 76.0 L1043.6 87.2 L1049.8 97.6 L1056.3 107.3 L1063.5 116.2 L1071.5 124.4 L1080.6 131.9 L1090.9 138.8 L1102.5 145.1 L1115.5 151.0 L1130.0 156.6 L1145.8 162.2 L1162.8 167.7 L1180.9 173.5 L1199.9 179.6 L1219.4 186.1 L1239.1 193.1 L1258.8 200.8 L1278.1 209.2 L1296.7 218.4 L1314.1 228.2 L1330.2 238.8 L1344.5 250.0 L1356.9 261.9 L1367.1 274.2 L1375.0 287.0 L1380.5 300.0 Z"/><path d="M1451.4 300.0 L1454.5 314.7 L1454.8 329.4 L1452.6 344.1 L1447.8 358.5 L1440.8 372.7 L1431.8 386.5 L1420.9 399.9 L1408.6 412.8 L1394.9 425.2 L1380.3 437.1 L1365.0 448.5 L1349.2 459.5 L1333.1 470.2 L1317.0 480.5 L1300.8 490.5 L1284.8 500.3 L1269.0 509.9 L1253.4 519.4 L1237.9 528.8 L1222.6 538.2 L1207.2 547.4 L1191.7 556.6 L1176.1 565.6 L1160.1 574.5 L1143.7 583.0 L1126.8 591.2 L1109.2 599.0 L1091.1 606.2 L1072.2 612.7 L1052.6 618.5 L1032.5 623.6 L1011.7 627.7 L990.5 630.9 L968.9 633.2 L947.0 634.6 L925.1 635.1 L903.2 634.7 L881.4 633.6 L859.9 631.8 L838.8 629.5 L818.1 626.9 L797.9 624.0 L778.2 621.1 L758.9 618.2 L740.0 615.6 L721.4 613.5 L702.9 611.8 L684.5 610.7 L665.9 610.3 L646.9 610.5 L627.4 611.5 L607.3 613.1 L586.3 615.3 L564.4 618.0 L541.4 620.9 L517.4 624.1 L492.3 627.2 L466.3 630.1 L439.4 632.6 L411.8 634.4 L383.7 635.4 L355.4 635.4 L327.2 634.3 L299.3 631.8 L272.3 627.9 L246.3 622.5 L221.8 615.6 L199.1 607.3 L178.5 597.4 L160.1 586.2 L144.4 573.7 L131.3 560.1 L121.1 545.6 L113.6 530.2 L108.9 514.3 L106.9 498.0 L107.3 481.5 L110.0 465.0 L114.7 448.6 L121.0 432.5 L128.7 416.8 L137.2 401.7 L146.4 387.1 L155.7 373.1 L165.0 359.6 L173.8 346.8 L181.9 334.5 L189.1 322.7 L195.2 311.2 L200.2 300.0 L204.0 289.0 L206.7 278.1 L208.2 267.1 L208.8 256.1 L208.7 244.9 L207.9 233.5 L206.9 221.8 L205.8 209.9 L205.0 197.7 L204.6 185.4 L204.9 172.8 L206.2 160.2 L208.5 147.5 L212.2 134.9 L217.3 122.5 L223.8 110.2 L231.7 98.3 L241.2 86.8 L252.0 75.7 L264.1 65.1 L277.4 55.0 L291.7 45.3 L306.9 36.2 L322.9 27.5 L339.5 19.2 L356.5 11.2 L373.8 3.5 L391.4 -4.0 L409.2 -11.4 L427.0 -18.9 L445.1 -26.3 L463.2 -33.8 L481.6 -41.4 L500.2 -49.2 L519.1 -57.0 L538.4 -64.9 L558.3 -72.8 L578.7 -80.6 L599.8 -88.1 L621.5 -95.3 L644.0 -102.0 L667.1 -108.0 L690.9 -113.1 L715.2 -117.3 L740.0 -120.4 L765.1 -122.1 L790.2 -122.4 L815.3 -121.3 L840.0 -118.6 L864.2 -114.3 L887.6 -108.4 L910.0 -101.0 L931.2 -92.2 L951.0 -82.0 L969.4 -70.7 L986.1 -58.3 L1001.3 -45.2 L1014.8 -31.4 L1026.8 -17.3 L1037.4 -3.0 L1046.7 11.3 L1055.0 25.3 L1062.6 38.8 L1069.7 51.8 L1076.5 64.1 L1083.5 75.6 L1091.0 86.2 L1099.1 96.0 L1108.3 104.9 L1118.6 113.1 L1130.3 120.6 L1143.6 127.5 L1158.3 134.0 L1174.7 140.2 L1192.5 146.3 L1211.6 152.5 L1231.9 158.9 L1253.1 165.6 L1274.8 172.9 L1296.8 180.8 L1318.6 189.4 L1340.0 198.8 L1360.4 209.0 L1379.6 220.0 L1397.2 231.8 L1412.8 244.4 L1426.2 257.6 L1437.2 271.3 L1445.7 285.5 L1451.4 300.0 Z"/><path d="M1522.1 300.0 L1525.1 316.1 L1525.2 332.3 L1522.5 348.4 L1517.1 364.2 L1509.2 379.8 L1499.2 394.9 L1487.3 409.6 L1473.7 423.8 L1458.8 437.4 L1442.9 450.5 L1426.3 463.1 L1409.2 475.3 L1391.8 487.0 L1374.4 498.4 L1356.9 509.5 L1339.7 520.4 L1322.6 531.2 L1305.7 541.8 L1288.9 552.3 L1272.2 562.7 L1255.5 573.0 L1238.6 583.2 L1221.4 593.2 L1203.8 603.0 L1185.7 612.5 L1167.0 621.5 L1147.6 630.0 L1127.4 637.9 L1106.5 645.0 L1084.8 651.3 L1062.4 656.6 L1039.3 661.0 L1015.8 664.4 L991.9 666.7 L967.7 668.0 L943.4 668.3 L919.2 667.7 L895.3 666.3 L871.6 664.2 L848.4 661.5 L825.7 658.5 L803.5 655.3 L781.8 652.0 L760.7 649.0 L740.0 646.2 L719.6 643.9 L699.3 642.2 L679.0 641.1 L658.6 640.9 L637.7 641.4 L616.2 642.6 L593.9 644.6 L570.7 647.3 L546.5 650.4 L521.1 653.9 L494.5 657.5 L466.7 661.0 L437.9 664.3 L408.2 667.1 L377.7 669.1 L346.7 670.2 L315.5 670.2 L284.4 668.8 L253.9 666.0 L224.2 661.6 L195.8 655.5 L169.0 647.8 L144.2 638.4 L121.8 627.5 L101.9 615.0 L84.9 601.1 L70.8 586.0 L59.8 569.9 L51.9 552.9 L47.0 535.4 L44.9 517.4 L45.6 499.2 L48.7 481.1 L53.9 463.1 L60.8 445.4 L69.1 428.2 L78.4 411.6 L88.3 395.6 L98.3 380.2 L108.2 365.5 L117.5 351.5 L126.1 338.0 L133.6 324.9 L140.0 312.3 L145.1 300.0 L149.0 287.9 L151.6 275.8 L153.0 263.7 L153.5 251.5 L153.2 239.1 L152.3 226.5 L151.2 213.6 L150.0 200.5 L149.2 187.1 L149.0 173.5 L149.6 159.7 L151.2 145.8 L154.2 131.9 L158.5 118.1 L164.4 104.5 L171.9 91.2 L181.0 78.2 L191.7 65.7 L203.8 53.6 L217.4 42.0 L232.1 31.0 L248.0 20.5 L264.8 10.6 L282.4 1.1 L300.6 -8.0 L319.2 -16.8 L338.2 -25.3 L357.4 -33.7 L376.8 -41.9 L396.3 -50.2 L415.9 -58.6 L435.7 -67.0 L455.7 -75.6 L476.0 -84.3 L496.7 -93.2 L517.9 -102.0 L539.7 -110.9 L562.1 -119.7 L585.3 -128.1 L609.3 -136.2 L634.0 -143.6 L659.5 -150.3 L685.8 -156.0 L712.7 -160.6 L740.0 -163.8 L767.6 -165.6 L795.4 -165.9 L823.0 -164.4 L850.2 -161.3 L876.8 -156.3 L902.5 -149.7 L927.0 -141.3 L950.3 -131.4 L972.0 -120.0 L992.0 -107.3 L1010.3 -93.6 L1026.8 -78.9 L1041.6 -63.7 L1054.6 -48.1 L1066.2 -32.3 L1076.4 -16.7 L1085.5 -1.3 L1093.8 13.5 L1101.7 27.7 L1109.3 41.1 L1117.2 53.6 L1125.5 65.2 L1134.7 75.8 L1145.1 85.5 L1156.7 94.3 L1169.9 102.4 L1184.8 109.9 L1201.4 116.9 L1219.6 123.7 L1239.5 130.4 L1260.8 137.1 L1283.2 144.1 L1306.6 151.6 L1330.6 159.6 L1354.8 168.4 L1378.8 177.9 L1402.1 188.3 L1424.4 199.6 L1445.2 211.8 L1464.3 224.9 L1481.1 238.7 L1495.5 253.3 L1507.3 268.4 L1516.2 284.1 L1522.1 300.0 Z"/><path d="M1592.6 300.0 L1595.5 317.6 L1595.3 335.2 L1592.0 352.7 L1585.9 369.9 L1577.2 386.8 L1566.2 403.3 L1553.2 419.3 L1538.5 434.7 L1522.4 449.5 L1505.3 463.8 L1487.4 477.6 L1469.0 490.9 L1450.4 503.8 L1431.7 516.4 L1413.1 528.6 L1394.6 540.6 L1376.3 552.5 L1358.1 564.2 L1340.1 575.8 L1322.1 587.3 L1304.0 598.7 L1285.7 610.0 L1267.0 621.0 L1247.8 631.7 L1228.0 642.1 L1207.4 651.9 L1186.1 661.2 L1163.9 669.7 L1140.9 677.4 L1117.0 684.1 L1092.3 689.8 L1067.0 694.4 L1041.1 697.8 L1014.8 700.1 L988.3 701.3 L961.7 701.4 L935.2 700.5 L909.0 698.8 L883.2 696.3 L857.9 693.3 L833.2 689.9 L809.0 686.4 L785.5 682.8 L762.5 679.5 L740.0 676.5 L717.8 674.1 L695.7 672.4 L673.6 671.5 L651.3 671.4 L628.4 672.2 L604.9 673.8 L580.5 676.2 L555.1 679.3 L528.5 682.9 L500.6 686.9 L471.4 691.0 L441.0 695.1 L409.4 698.7 L376.8 701.8 L343.4 704.1 L309.5 705.3 L275.4 705.2 L241.5 703.6 L208.2 700.4 L176.0 695.4 L145.1 688.6 L116.1 680.0 L89.3 669.6 L65.1 657.5 L43.7 643.7 L25.5 628.4 L10.4 611.8 L-1.2 594.1 L-9.6 575.5 L-14.7 556.3 L-16.7 536.7 L-15.8 516.8 L-12.3 497.0 L-6.6 477.4 L1.0 458.2 L9.9 439.5 L19.9 421.5 L30.4 404.1 L41.1 387.4 L51.5 371.4 L61.3 356.1 L70.2 341.4 L78.1 327.2 L84.6 313.5 L89.8 300.0 L93.6 286.7 L96.2 273.5 L97.5 260.3 L97.8 246.9 L97.3 233.3 L96.3 219.5 L95.0 205.4 L93.9 191.0 L93.2 176.4 L93.1 161.5 L94.0 146.5 L96.2 131.4 L99.7 116.3 L104.8 101.3 L111.6 86.6 L120.2 72.2 L130.4 58.1 L142.4 44.6 L155.9 31.6 L170.9 19.1 L187.2 7.2 L204.6 -4.1 L223.0 -14.9 L242.2 -25.2 L262.0 -35.1 L282.2 -44.7 L302.8 -54.0 L323.6 -63.2 L344.5 -72.3 L365.6 -81.5 L386.8 -90.8 L408.2 -100.2 L429.9 -109.8 L451.9 -119.5 L474.3 -129.4 L497.3 -139.3 L521.0 -149.2 L545.5 -158.9 L570.8 -168.3 L596.9 -177.3 L624.0 -185.5 L651.9 -192.8 L680.7 -199.0 L710.1 -204.0 L740.0 -207.5 L770.2 -209.3 L800.6 -209.4 L830.7 -207.7 L860.4 -204.0 L889.4 -198.4 L917.4 -190.9 L944.1 -181.5 L969.3 -170.4 L992.9 -157.8 L1014.6 -143.8 L1034.4 -128.6 L1052.2 -112.5 L1068.2 -95.8 L1082.3 -78.7 L1094.8 -61.5 L1105.9 -44.4 L1115.8 -27.7 L1124.9 -11.6 L1133.5 3.8 L1141.9 18.2 L1150.7 31.7 L1160.0 44.1 L1170.3 55.5 L1181.9 66.0 L1194.9 75.4 L1209.7 84.1 L1226.2 92.2 L1244.6 99.8 L1264.9 107.1 L1286.8 114.3 L1310.2 121.6 L1334.9 129.3 L1360.6 137.5 L1386.8 146.3 L1413.1 155.9 L1439.2 166.4 L1464.5 177.8 L1488.6 190.2 L1511.0 203.6 L1531.5 217.9 L1549.5 233.1 L1564.8 249.0 L1577.2 265.6 L1586.5 282.6 L1592.6 300.0 Z"/><path d="M1662.8 300.0 L1665.6 319.0 L1665.0 338.0 L1661.2 357.0 L1654.4 375.6 L1644.8 393.9 L1632.9 411.6 L1618.8 428.9 L1602.9 445.6 L1585.7 461.6 L1567.4 477.1 L1548.3 492.1 L1528.7 506.6 L1509.0 520.6 L1489.1 534.3 L1469.3 547.7 L1449.6 560.8 L1430.2 573.8 L1410.8 586.7 L1391.6 599.4 L1372.3 612.1 L1352.8 624.6 L1333.1 636.9 L1312.8 648.9 L1292.0 660.6 L1270.5 671.9 L1248.1 682.6 L1224.8 692.5 L1200.6 701.7 L1175.4 709.8 L1149.2 717.0 L1122.3 722.9 L1094.6 727.7 L1066.4 731.2 L1037.7 733.5 L1008.8 734.5 L979.9 734.4 L951.2 733.2 L922.7 731.1 L894.8 728.3 L867.4 724.9 L840.6 721.1 L814.5 717.2 L789.1 713.3 L764.3 709.8 L740.0 706.7 L716.0 704.2 L692.2 702.5 L668.2 701.7 L644.0 701.9 L619.2 703.0 L593.7 705.0 L567.1 707.9 L539.4 711.5 L510.4 715.7 L480.0 720.2 L448.2 724.8 L415.1 729.3 L380.7 733.4 L345.2 736.8 L308.9 739.2 L272.1 740.5 L235.1 740.3 L198.4 738.5 L162.4 734.8 L127.6 729.3 L94.4 721.8 L63.1 712.3 L34.4 700.8 L8.5 687.5 L-14.3 672.3 L-33.8 655.6 L-49.7 637.5 L-62.0 618.2 L-70.7 598.0 L-76.0 577.1 L-77.9 555.8 L-76.7 534.3 L-72.9 512.9 L-66.7 491.7 L-58.5 471.0 L-48.9 450.8 L-38.4 431.3 L-27.2 412.5 L-16.0 394.5 L-5.1 377.3 L5.1 360.8 L14.3 344.9 L22.4 329.5 L29.0 314.6 L34.2 300.0 L38.0 285.6 L40.4 271.2 L41.5 256.8 L41.6 242.3 L41.0 227.5 L39.8 212.5 L38.5 197.1 L37.4 181.5 L36.8 165.6 L37.0 149.5 L38.3 133.2 L40.9 116.9 L45.2 100.7 L51.1 84.5 L58.9 68.7 L68.5 53.2 L80.0 38.1 L93.3 23.6 L108.2 9.6 L124.7 -3.7 L142.5 -16.4 L161.5 -28.6 L181.5 -40.2 L202.3 -51.3 L223.7 -62.0 L245.4 -72.4 L267.6 -82.5 L289.9 -92.6 L312.3 -102.6 L334.9 -112.7 L357.7 -122.9 L380.7 -133.4 L404.0 -144.0 L427.6 -154.8 L451.8 -165.7 L476.7 -176.7 L502.3 -187.7 L528.7 -198.4 L556.1 -208.8 L584.5 -218.6 L613.9 -227.6 L644.3 -235.6 L675.5 -242.3 L707.5 -247.7 L740.0 -251.3 L772.8 -253.2 L805.8 -253.1 L838.5 -251.0 L870.6 -246.8 L902.0 -240.5 L932.3 -232.1 L961.1 -221.7 L988.3 -209.4 L1013.7 -195.5 L1037.0 -180.1 L1058.3 -163.4 L1077.5 -145.9 L1094.6 -127.7 L1109.8 -109.1 L1123.2 -90.4 L1135.1 -71.9 L1145.8 -53.9 L1155.7 -36.6 L1165.1 -20.1 L1174.4 -4.6 L1184.1 9.9 L1194.5 23.2 L1205.9 35.3 L1218.8 46.4 L1233.2 56.5 L1249.6 65.8 L1267.9 74.4 L1288.2 82.5 L1310.4 90.3 L1334.4 98.1 L1360.1 106.1 L1387.0 114.4 L1414.9 123.2 L1443.3 132.8 L1471.8 143.3 L1499.9 154.8 L1527.2 167.2 L1553.0 180.8 L1577.0 195.3 L1598.7 210.9 L1617.9 227.4 L1634.0 244.7 L1647.0 262.7 L1656.6 281.2 L1662.8 300.0 Z"/><path d="M1732.8 300.0 L1735.3 320.4 L1734.4 340.9 L1730.0 361.2 L1722.4 381.2 L1712.0 400.8 L1699.1 419.9 L1684.0 438.4 L1667.0 456.4 L1648.7 473.7 L1629.2 490.4 L1609.0 506.5 L1588.3 522.2 L1567.4 537.4 L1546.5 552.2 L1525.6 566.8 L1504.8 581.1 L1484.2 595.3 L1463.7 609.3 L1443.3 623.2 L1422.7 637.0 L1401.9 650.6 L1380.8 664.0 L1359.0 677.1 L1336.6 689.7 L1313.3 701.9 L1289.0 713.3 L1263.7 724.0 L1237.4 733.8 L1210.0 742.4 L1181.6 749.9 L1152.3 756.1 L1122.3 761.0 L1091.6 764.5 L1060.6 766.7 L1029.3 767.5 L998.0 767.2 L967.0 765.7 L936.3 763.2 L906.2 760.0 L876.7 756.2 L848.0 752.0 L820.0 747.8 L792.7 743.6 L766.1 739.8 L740.0 736.6 L714.2 734.1 L688.6 732.5 L662.8 731.9 L636.7 732.3 L610.0 733.8 L582.4 736.3 L553.7 739.6 L523.7 743.8 L492.3 748.5 L459.3 753.6 L424.9 758.8 L389.0 763.7 L351.8 768.2 L313.4 771.9 L274.2 774.6 L234.5 775.9 L194.6 775.6 L155.2 773.5 L116.5 769.5 L79.1 763.3 L43.5 755.0 L10.2 744.6 L-20.5 732.0 L-48.1 717.4 L-72.3 700.9 L-92.8 682.8 L-109.6 663.1 L-122.5 642.2 L-131.6 620.4 L-136.9 597.8 L-138.8 574.8 L-137.4 551.7 L-133.1 528.7 L-126.4 505.9 L-117.7 483.6 L-107.5 462.0 L-96.4 441.1 L-84.7 421.0 L-73.0 401.6 L-61.7 383.2 L-51.1 365.4 L-41.6 348.3 L-33.5 331.8 L-26.8 315.8 L-21.6 300.0 L-18.0 284.4 L-15.8 268.9 L-14.8 253.3 L-14.9 237.6 L-15.7 221.6 L-17.0 205.4 L-18.3 188.8 L-19.4 171.9 L-19.9 154.8 L-19.4 137.4 L-17.6 119.9 L-14.4 102.4 L-9.4 85.0 L-2.6 67.7 L6.2 50.8 L17.0 34.2 L29.8 18.2 L44.4 2.7 L60.8 -12.2 L78.8 -26.4 L98.2 -39.9 L118.7 -52.9 L140.3 -65.3 L162.6 -77.2 L185.5 -88.7 L208.9 -99.9 L232.5 -110.9 L256.3 -121.8 L280.3 -132.8 L304.4 -143.8 L328.7 -155.1 L353.2 -166.5 L378.0 -178.2 L403.3 -190.2 L429.3 -202.2 L455.9 -214.3 L483.4 -226.4 L511.9 -238.1 L541.4 -249.5 L572.1 -260.2 L603.8 -269.9 L636.6 -278.6 L670.4 -285.9 L704.9 -291.5 L740.0 -295.4 L775.5 -297.2 L811.0 -297.0 L846.2 -294.4 L880.9 -289.6 L914.6 -282.5 L947.1 -273.2 L978.1 -261.7 L1007.2 -248.2 L1034.4 -233.0 L1059.4 -216.2 L1082.1 -198.1 L1102.6 -179.0 L1120.8 -159.3 L1137.0 -139.3 L1151.4 -119.1 L1164.2 -99.3 L1175.7 -80.0 L1186.4 -61.4 L1196.6 -43.8 L1206.8 -27.2 L1217.4 -11.9 L1228.9 2.2 L1241.5 15.1 L1255.7 26.9 L1271.7 37.6 L1289.6 47.4 L1309.7 56.5 L1332.0 65.1 L1356.2 73.5 L1382.4 81.8 L1410.3 90.4 L1439.5 99.3 L1469.6 108.9 L1500.2 119.3 L1530.9 130.7 L1561.0 143.1 L1590.1 156.6 L1617.6 171.3 L1643.1 187.1 L1666.1 203.9 L1686.2 221.8 L1703.1 240.5 L1716.6 259.8 L1726.5 279.7 L1732.8 300.0 Z"/><path d="M1802.4 300.0 L1804.7 321.9 L1803.3 343.7 L1798.3 365.4 L1790.1 386.8 L1778.8 407.7 L1764.9 428.1 L1748.8 448.0 L1730.8 467.1 L1711.4 485.7 L1690.8 503.6 L1669.6 520.9 L1647.8 537.8 L1625.9 554.2 L1603.9 570.2 L1581.9 585.9 L1560.1 601.5 L1538.5 616.8 L1516.9 632.0 L1495.3 647.1 L1473.5 662.0 L1451.4 676.8 L1428.7 691.2 L1405.5 705.4 L1381.3 719.0 L1356.3 732.0 L1330.1 744.3 L1302.8 755.7 L1274.3 766.0 L1244.7 775.1 L1214.0 782.9 L1182.3 789.4 L1149.9 794.3 L1116.8 797.8 L1083.3 799.9 L1049.7 800.5 L1016.1 799.8 L982.7 797.9 L949.8 795.1 L917.6 791.4 L886.0 787.2 L855.3 782.7 L825.4 778.1 L796.3 773.7 L767.9 769.7 L740.0 766.4 L712.5 763.9 L685.0 762.4 L657.4 762.0 L629.4 762.7 L600.7 764.6 L571.0 767.6 L540.2 771.5 L507.9 776.2 L474.0 781.5 L438.5 787.2 L401.4 792.9 L362.8 798.4 L322.7 803.3 L281.4 807.3 L239.3 810.2 L196.7 811.5 L154.0 811.1 L111.7 808.7 L70.4 804.2 L30.5 797.4 L-7.4 788.3 L-42.9 776.9 L-75.4 763.2 L-104.6 747.3 L-130.1 729.5 L-151.7 709.8 L-169.3 688.6 L-182.7 666.1 L-192.1 642.6 L-197.5 618.4 L-199.3 593.8 L-197.6 569.0 L-193.0 544.3 L-185.8 520.0 L-176.6 496.2 L-165.9 473.1 L-154.2 450.8 L-142.0 429.4 L-129.8 408.8 L-118.2 389.0 L-107.4 370.1 L-97.7 351.8 L-89.5 334.1 L-82.8 316.9 L-77.8 300.0 L-74.3 283.3 L-72.3 266.6 L-71.6 249.8 L-71.8 232.9 L-72.8 215.7 L-74.2 198.2 L-75.6 180.4 L-76.6 162.3 L-76.8 143.9 L-76.0 125.3 L-73.7 106.6 L-69.8 87.9 L-64.0 69.3 L-56.2 51.0 L-46.4 32.9 L-34.4 15.4 L-20.3 -1.7 L-4.2 -18.1 L13.6 -33.8 L33.2 -48.9 L54.1 -63.3 L76.2 -77.1 L99.4 -90.2 L123.2 -102.9 L147.7 -115.2 L172.5 -127.3 L197.6 -139.1 L222.9 -151.0 L248.3 -162.8 L273.9 -174.9 L299.6 -187.2 L325.6 -199.7 L352.1 -212.6 L379.0 -225.6 L406.6 -238.8 L435.1 -252.1 L464.5 -265.2 L495.0 -278.1 L526.7 -290.4 L559.6 -302.0 L593.7 -312.5 L628.9 -321.8 L665.2 -329.6 L702.3 -335.6 L740.0 -339.6 L778.1 -341.4 L816.2 -340.9 L854.0 -337.9 L891.1 -332.5 L927.2 -324.6 L962.0 -314.3 L995.0 -301.7 L1026.1 -286.9 L1055.0 -270.3 L1081.6 -252.1 L1105.8 -232.5 L1127.5 -212.0 L1146.9 -190.8 L1164.1 -169.2 L1179.4 -147.7 L1193.0 -126.5 L1205.4 -105.8 L1216.9 -86.1 L1227.9 -67.4 L1239.1 -49.9 L1250.7 -33.6 L1263.2 -18.7 L1277.1 -5.1 L1292.7 7.3 L1310.2 18.5 L1329.9 28.9 L1351.8 38.5 L1376.0 47.6 L1402.4 56.5 L1430.8 65.4 L1460.9 74.5 L1492.3 84.2 L1524.7 94.5 L1557.5 105.7 L1590.2 118.0 L1622.3 131.4 L1653.2 146.0 L1682.4 161.8 L1709.3 178.8 L1733.5 197.0 L1754.5 216.1 L1772.2 236.2 L1786.1 257.0 L1796.2 278.3 L1802.4 300.0 Z"/><path d="M1871.7 300.0 L1873.8 323.3 L1871.9 346.6 L1866.3 369.6 L1857.3 392.4 L1845.2 414.6 L1830.3 436.3 L1813.2 457.4 L1794.3 477.8 L1773.8 497.6 L1752.3 516.7 L1730.0 535.3 L1707.3 553.3 L1684.3 570.9 L1661.3 588.2 L1638.4 605.1 L1615.6 621.9 L1593.0 638.4 L1570.3 654.8 L1547.5 671.1 L1524.5 687.2 L1501.1 703.1 L1477.0 718.7 L1452.2 733.8 L1426.4 748.4 L1399.5 762.3 L1371.4 775.4 L1342.0 787.4 L1311.4 798.3 L1279.5 807.8 L1246.4 816.0 L1212.4 822.6 L1177.5 827.6 L1141.9 831.0 L1106.0 832.9 L1070.0 833.3 L1034.0 832.3 L998.4 830.0 L963.3 826.7 L928.9 822.7 L895.3 818.0 L862.6 813.1 L830.8 808.2 L799.9 803.6 L769.6 799.4 L740.0 796.0 L710.7 793.6 L681.5 792.2 L652.1 792.1 L622.2 793.2 L591.5 795.5 L559.7 798.9 L526.6 803.4 L492.0 808.8 L455.7 814.7 L417.6 821.0 L377.8 827.3 L336.4 833.3 L293.4 838.6 L249.2 842.9 L204.2 845.9 L158.6 847.3 L113.1 846.7 L68.1 844.0 L24.1 839.0 L-18.2 831.5 L-58.4 821.6 L-95.9 809.2 L-130.2 794.3 L-160.9 777.2 L-187.7 757.9 L-210.4 736.8 L-228.7 714.0 L-242.6 689.9 L-252.3 664.7 L-257.8 638.9 L-259.4 612.6 L-257.5 586.2 L-252.5 559.9 L-244.8 534.1 L-235.1 508.8 L-223.9 484.2 L-211.7 460.5 L-199.1 437.7 L-186.6 415.9 L-174.7 394.9 L-163.7 374.7 L-154.0 355.3 L-145.8 336.4 L-139.2 318.1 L-134.3 300.0 L-131.0 282.1 L-129.2 264.2 L-128.7 246.3 L-129.2 228.1 L-130.4 209.7 L-131.8 191.0 L-133.2 171.9 L-134.0 152.6 L-134.0 133.0 L-132.8 113.1 L-129.9 93.2 L-125.3 73.4 L-118.7 53.6 L-109.9 34.2 L-98.8 15.1 L-85.5 -3.4 L-70.1 -21.4 L-52.6 -38.7 L-33.2 -55.4 L-12.2 -71.3 L10.3 -86.5 L34.0 -101.0 L58.7 -115.0 L84.1 -128.5 L110.1 -141.6 L136.4 -154.5 L162.9 -167.2 L189.6 -180.0 L216.4 -192.9 L243.4 -205.9 L270.6 -219.3 L298.1 -233.0 L326.0 -246.9 L354.6 -261.2 L383.9 -275.6 L414.1 -290.0 L445.4 -304.3 L478.0 -318.2 L511.8 -331.5 L546.9 -344.0 L583.4 -355.4 L621.1 -365.3 L659.9 -373.6 L699.6 -379.9 L740.0 -384.0 L780.7 -385.7 L821.4 -384.9 L861.8 -381.5 L901.4 -375.4 L939.8 -366.6 L976.8 -355.3 L1011.9 -341.5 L1044.9 -325.5 L1075.6 -307.5 L1103.7 -287.8 L1129.3 -266.8 L1152.3 -244.7 L1172.8 -222.0 L1191.0 -198.9 L1207.2 -176.0 L1221.7 -153.4 L1234.9 -131.6 L1247.2 -110.6 L1259.1 -90.9 L1271.2 -72.4 L1283.9 -55.3 L1297.6 -39.7 L1312.8 -25.4 L1329.8 -12.4 L1348.9 -0.6 L1370.4 10.3 L1394.2 20.4 L1420.4 30.0 L1448.9 39.4 L1479.5 48.9 L1511.8 58.6 L1545.5 68.9 L1580.1 80.0 L1615.1 92.0 L1649.9 105.2 L1683.9 119.6 L1716.6 135.3 L1747.3 152.3 L1775.5 170.5 L1800.8 190.0 L1822.8 210.5 L1841.0 231.9 L1855.4 254.1 L1865.6 276.9 L1871.7 300.0 Z"/><path d="M1940.7 300.0 L1942.5 324.7 L1940.1 349.4 L1933.9 373.8 L1924.1 397.9 L1911.1 421.5 L1895.4 444.5 L1877.4 466.8 L1857.4 488.5 L1836.0 509.5 L1813.5 529.8 L1790.3 549.6 L1766.6 568.9 L1742.8 587.7 L1718.9 606.2 L1695.1 624.4 L1671.3 642.3 L1647.7 660.1 L1624.0 677.8 L1600.1 695.3 L1575.9 712.6 L1551.1 729.6 L1525.6 746.3 L1499.2 762.5 L1471.7 778.0 L1443.0 792.8 L1412.9 806.6 L1381.4 819.3 L1348.5 830.7 L1314.3 840.6 L1278.9 849.0 L1242.4 855.8 L1205.0 860.8 L1167.0 864.2 L1128.6 865.8 L1090.1 865.9 L1051.8 864.5 L1013.9 861.9 L976.6 858.2 L940.1 853.7 L904.5 848.6 L869.8 843.3 L836.1 838.1 L803.4 833.2 L771.4 828.9 L740.0 825.5 L708.9 823.1 L678.0 822.0 L646.7 822.1 L614.9 823.6 L582.2 826.4 L548.3 830.4 L513.0 835.5 L476.0 841.5 L437.2 848.1 L396.6 855.0 L354.1 861.9 L309.8 868.4 L264.0 874.1 L216.9 878.7 L168.9 881.9 L120.5 883.2 L72.1 882.5 L24.3 879.4 L-22.2 873.9 L-67.0 865.7 L-109.4 854.9 L-148.9 841.5 L-185.0 825.4 L-217.2 807.0 L-245.2 786.3 L-268.8 763.6 L-287.8 739.3 L-302.2 713.5 L-312.1 686.7 L-317.7 659.2 L-319.1 631.3 L-317.0 603.2 L-311.6 575.4 L-303.6 548.0 L-293.4 521.3 L-281.7 495.3 L-269.1 470.2 L-256.2 446.1 L-243.4 423.0 L-231.2 400.7 L-220.1 379.4 L-210.4 358.8 L-202.2 338.8 L-195.8 319.2 L-191.1 300.0 L-188.0 280.9 L-186.5 261.9 L-186.3 242.7 L-187.0 223.4 L-188.3 203.7 L-189.8 183.7 L-191.1 163.4 L-191.8 142.8 L-191.5 122.0 L-189.7 100.9 L-186.3 79.9 L-180.9 58.8 L-173.3 38.0 L-163.4 17.4 L-151.1 -2.6 L-136.5 -22.2 L-119.7 -41.1 L-100.7 -59.3 L-79.8 -76.8 L-57.2 -93.5 L-33.1 -109.5 L-7.9 -124.8 L18.4 -139.6 L45.3 -153.9 L72.7 -167.8 L100.4 -181.5 L128.4 -195.2 L156.4 -208.9 L184.6 -222.8 L213.0 -237.0 L241.6 -251.4 L270.5 -266.3 L299.9 -281.4 L330.0 -296.9 L361.0 -312.5 L393.1 -328.1 L426.3 -343.5 L460.9 -358.6 L496.8 -372.9 L534.3 -386.3 L573.1 -398.5 L613.3 -409.0 L654.7 -417.7 L697.0 -424.3 L740.0 -428.5 L783.3 -430.1 L826.7 -429.0 L869.5 -425.0 L911.6 -418.2 L952.4 -408.6 L991.6 -396.2 L1028.7 -381.2 L1063.6 -363.9 L1096.0 -344.5 L1125.7 -323.3 L1152.6 -300.8 L1176.9 -277.2 L1198.5 -253.0 L1217.7 -228.5 L1234.8 -204.1 L1250.1 -180.2 L1264.2 -157.1 L1277.4 -135.1 L1290.2 -114.3 L1303.3 -94.9 L1317.0 -77.0 L1332.0 -60.6 L1348.5 -45.7 L1367.0 -32.1 L1387.8 -19.8 L1411.1 -8.4 L1436.8 2.2 L1465.1 12.3 L1495.7 22.2 L1528.5 32.2 L1563.1 42.6 L1599.1 53.5 L1635.9 65.4 L1673.0 78.3 L1709.8 92.4 L1745.7 107.8 L1780.1 124.6 L1812.3 142.7 L1841.9 162.2 L1868.2 183.0 L1890.9 204.9 L1909.8 227.7 L1924.4 251.3 L1934.7 275.5 L1940.7 300.0 Z"/><path d="M2009.4 300.0 L2010.7 326.1 L2007.9 352.2 L2001.0 378.0 L1990.5 403.4 L1976.7 428.3 L1960.1 452.6 L1941.1 476.2 L1920.3 499.1 L1898.0 521.3 L1874.6 542.9 L1850.5 563.9 L1826.0 584.4 L1801.3 604.5 L1776.5 624.2 L1751.8 643.6 L1727.2 662.9 L1702.6 681.9 L1677.9 700.8 L1652.9 719.6 L1627.5 738.1 L1601.5 756.3 L1574.5 774.1 L1546.5 791.3 L1517.3 807.8 L1486.7 823.4 L1454.6 838.0 L1420.9 851.3 L1385.8 863.2 L1349.2 873.5 L1311.4 882.1 L1272.4 889.0 L1232.5 894.0 L1192.0 897.2 L1151.2 898.6 L1110.2 898.4 L1069.5 896.6 L1029.3 893.5 L989.8 889.4 L951.2 884.4 L913.5 878.9 L877.0 873.3 L841.4 867.8 L806.9 862.7 L773.1 858.3 L740.0 854.8 L707.2 852.6 L674.4 851.6 L641.3 852.1 L607.6 854.0 L572.9 857.4 L536.9 862.0 L499.3 867.8 L460.0 874.4 L418.7 881.7 L375.4 889.3 L330.1 896.7 L283.0 903.7 L234.3 909.9 L184.3 914.8 L133.4 918.0 L82.1 919.4 L30.9 918.4 L-19.6 915.0 L-68.7 908.9 L-115.9 900.0 L-160.4 888.3 L-201.9 873.7 L-239.6 856.5 L-273.3 836.7 L-302.5 814.6 L-327.0 790.4 L-346.7 764.4 L-361.5 737.1 L-371.6 708.6 L-377.2 679.4 L-378.5 649.8 L-376.1 620.2 L-370.4 590.8 L-361.9 561.9 L-351.4 533.7 L-339.3 506.3 L-326.3 479.9 L-313.1 454.4 L-300.1 430.0 L-287.8 406.6 L-276.6 384.0 L-266.9 362.3 L-258.9 341.1 L-252.7 320.4 L-248.2 300.0 L-245.5 279.8 L-244.2 259.5 L-244.3 239.1 L-245.2 218.6 L-246.6 197.7 L-248.2 176.4 L-249.4 154.9 L-249.9 133.0 L-249.1 110.9 L-246.9 88.7 L-242.7 66.4 L-236.5 44.3 L-227.9 22.3 L-216.8 0.7 L-203.3 -20.4 L-187.3 -40.9 L-169.0 -60.7 L-148.5 -79.7 L-126.1 -98.0 L-101.9 -115.5 L-76.3 -132.3 L-49.4 -148.4 L-21.7 -164.0 L6.7 -179.1 L35.5 -193.9 L64.6 -208.5 L93.9 -223.1 L123.4 -237.8 L152.9 -252.7 L182.6 -267.9 L212.5 -283.6 L242.8 -299.6 L273.8 -316.0 L305.4 -332.7 L338.1 -349.6 L371.9 -366.4 L407.0 -383.0 L443.6 -399.2 L481.8 -414.6 L521.5 -428.9 L562.8 -441.8 L605.5 -453.0 L649.4 -462.1 L694.4 -468.9 L740.0 -473.2 L786.0 -474.6 L831.9 -473.1 L877.3 -468.6 L921.8 -461.0 L965.0 -450.4 L1006.3 -437.0 L1045.5 -420.8 L1082.3 -402.1 L1116.3 -381.3 L1147.5 -358.6 L1175.8 -334.6 L1201.3 -309.4 L1224.0 -283.7 L1244.2 -257.8 L1262.2 -232.0 L1278.4 -206.8 L1293.3 -182.5 L1307.4 -159.4 L1321.2 -137.6 L1335.3 -117.3 L1350.2 -98.6 L1366.4 -81.6 L1384.3 -66.0 L1404.4 -51.9 L1426.9 -39.0 L1452.0 -27.2 L1479.7 -16.1 L1510.1 -5.6 L1542.9 4.9 L1578.0 15.4 L1614.8 26.4 L1653.0 38.1 L1692.0 50.7 L1731.3 64.4 L1770.1 79.5 L1807.8 95.9 L1843.8 113.8 L1877.5 133.2 L1908.2 153.9 L1935.5 176.0 L1959.0 199.2 L1978.3 223.4 L1993.2 248.5 L2003.5 274.0 L2009.4 300.0 Z"/><path d="M2077.6 300.0 L2078.6 327.5 L2075.2 354.9 L2067.7 382.1 L2056.4 408.8 L2041.8 435.0 L2024.4 460.6 L2004.6 485.5 L1982.9 509.6 L1959.7 533.1 L1935.5 556.0 L1910.6 578.2 L1885.3 600.0 L1859.8 621.3 L1834.3 642.3 L1808.8 663.0 L1783.3 683.5 L1757.8 703.8 L1732.2 724.0 L1706.1 744.0 L1679.5 763.7 L1652.1 783.1 L1623.7 802.0 L1594.1 820.3 L1563.1 837.7 L1530.6 854.2 L1496.4 869.5 L1460.6 883.4 L1423.1 895.8 L1384.2 906.4 L1343.9 915.2 L1302.4 922.1 L1260.0 927.1 L1216.9 930.1 L1173.6 931.2 L1130.2 930.6 L1087.1 928.5 L1044.6 924.9 L1002.9 920.3 L962.2 914.9 L922.6 909.0 L884.1 903.0 L846.7 897.2 L810.4 891.9 L774.9 887.4 L740.0 884.0 L705.5 881.9 L670.9 881.3 L636.0 882.1 L600.3 884.5 L563.6 888.4 L525.5 893.7 L485.6 900.2 L443.8 907.5 L400.0 915.5 L354.1 923.7 L306.1 931.8 L256.1 939.3 L204.5 945.9 L151.5 951.0 L97.7 954.4 L43.5 955.7 L-10.5 954.5 L-63.6 950.6 L-115.3 943.9 L-164.8 934.3 L-211.5 921.6 L-254.8 906.0 L-294.2 887.5 L-329.3 866.3 L-359.6 842.8 L-385.0 817.0 L-405.3 789.5 L-420.5 760.4 L-430.8 730.3 L-436.3 699.5 L-437.5 668.3 L-434.9 637.1 L-428.8 606.1 L-420.0 575.7 L-409.1 546.0 L-396.7 517.3 L-383.4 489.5 L-369.9 462.8 L-356.7 437.1 L-344.4 412.5 L-333.3 388.7 L-323.7 365.8 L-315.9 343.4 L-309.9 321.6 L-305.8 300.0 L-303.3 278.6 L-302.4 257.1 L-302.7 235.5 L-303.8 213.7 L-305.4 191.6 L-306.9 169.1 L-308.0 146.3 L-308.2 123.2 L-307.0 99.9 L-304.2 76.4 L-299.3 53.0 L-292.1 29.7 L-282.4 6.7 L-270.1 -15.9 L-255.3 -38.0 L-237.9 -59.4 L-218.1 -80.1 L-196.1 -100.0 L-172.0 -119.1 L-146.3 -137.5 L-119.1 -155.0 L-90.7 -171.9 L-61.5 -188.2 L-31.7 -204.1 L-1.4 -219.8 L29.0 -235.3 L59.7 -250.8 L90.4 -266.5 L121.2 -282.5 L152.2 -298.9 L183.4 -315.8 L215.1 -333.0 L247.5 -350.7 L280.7 -368.7 L315.0 -386.8 L350.6 -404.9 L387.7 -422.8 L426.3 -440.0 L466.7 -456.5 L508.7 -471.7 L552.4 -485.3 L597.6 -497.1 L644.1 -506.7 L691.7 -513.7 L740.0 -518.0 L788.6 -519.2 L837.2 -517.3 L885.1 -512.2 L932.0 -503.8 L977.5 -492.3 L1021.0 -477.6 L1062.2 -460.2 L1100.8 -440.2 L1136.5 -417.9 L1169.2 -393.7 L1198.9 -368.1 L1225.5 -341.5 L1249.3 -314.3 L1270.5 -286.9 L1289.4 -259.8 L1306.5 -233.3 L1322.3 -207.8 L1337.3 -183.6 L1352.1 -160.8 L1367.2 -139.7 L1383.3 -120.3 L1400.8 -102.5 L1420.2 -86.4 L1441.9 -71.8 L1466.2 -58.4 L1493.2 -46.1 L1522.9 -34.6 L1555.4 -23.5 L1590.5 -12.6 L1627.8 -1.5 L1666.9 10.1 L1707.3 22.5 L1748.5 35.9 L1789.8 50.5 L1830.6 66.5 L1870.1 84.0 L1907.7 103.0 L1942.7 123.6 L1974.6 145.6 L2002.8 169.0 L2026.9 193.6 L2046.6 219.2 L2061.7 245.6 L2072.0 272.6 L2077.6 300.0 Z"/></g></svg>